<?xml version="1.0" encoding="UTF-8" standalone="no"?>
<!-- Created with Inkscape (http://www.inkscape.org/) -->

<svg
   width="76.610962mm"
   height="265.69824mm"
   viewBox="0 0 76.610962 265.69824"
   version="1.1"
   id="svg1"
   inkscape:version="1.3.2 (091e20e, 2023-11-25)"
   sodipodi:docname="filigree_4.svg"
   xmlns:inkscape="http://www.inkscape.org/namespaces/inkscape"
   xmlns:sodipodi="http://sodipodi.sourceforge.net/DTD/sodipodi-0.dtd"
   xmlns="http://www.w3.org/2000/svg"
   xmlns:svg="http://www.w3.org/2000/svg">
  <sodipodi:namedview
     id="namedview1"
     pagecolor="#ffffff"
     bordercolor="#000000"
     borderopacity="0.25"
     inkscape:showpageshadow="2"
     inkscape:pageopacity="0.0"
     inkscape:pagecheckerboard="0"
     inkscape:deskcolor="#d1d1d1"
     inkscape:document-units="mm"
     inkscape:zoom="1.0494248"
     inkscape:cx="-316.84023"
     inkscape:cy="360.19732"
     inkscape:window-width="2560"
     inkscape:window-height="1378"
     inkscape:window-x="0"
     inkscape:window-y="25"
     inkscape:window-maximized="1"
     inkscape:current-layer="layer1" />
  <defs
     id="defs1" />
  <g
     inkscape:label="Layer 1"
     inkscape:groupmode="layer"
     id="layer1"
     transform="translate(-188.7353,-53.093873)">
    <path
       id="path11"
       d="m 243.56484,259.58735 c 8.78417,-4.53496 16.65462,11.52136 18.21392,18.41535 2.35653,11.41306 -2.82575,20.32706 -9.50384,28.61804 -17.25083,22.80145 -44.10075,11.71435 -56.55733,-17.88194 -18.80658,-45.87383 4.39208,-90.75774 22.30612,-125.82385 10.5763,-23.22335 36.31496,-56.40564 24.93433,-83.220258 -3.85585,-9.28511 -13.28912,-13.462 -19.24753,-2.78697 -5.99372,-9.61318 2.9845,-21.48062 12.52008,-23.46677 9.8425,-2.14487 19.24402,6.0184 23.9536,14.37924 9.99419,18.33737 3.92642,41.574848 -5.08352,59.114948 -10.93965,20.60575 -28.74081,41.06688 -38.84083,64.79471 -7.73996,17.88229 -15.50458,39.6381 -16.41475,60.8852 -1.27,17.8167 9.45092,49.1476 27.3332,50.63596 21.87575,1.4591 27.08275,-27.15437 15.47284,-42.90166 0.30339,-0.25506 0.60325,-0.50834 0.91371,-0.762"
       style="fill:#231f20;fill-opacity:1;fill-rule:nonzero;stroke:none;stroke-width:0.0352777" />
  </g>
</svg>
