<?xml version="1.0" encoding="UTF-8" standalone="no"?>
<!-- Created with Inkscape (http://www.inkscape.org/) -->

<svg
        width="1020.7045mm"
        height="545.09808mm"
        viewBox="0 0 1020.7045 545.09808"
        version="1.1"
        id="svg1"
        inkscape:version="1.3.2 (091e20e, 2023-11-25)"
        sodipodi:docname="hand.svg"
        xmlns:inkscape="http://www.inkscape.org/namespaces/inkscape"
        xmlns:sodipodi="http://sodipodi.sourceforge.net/DTD/sodipodi-0.dtd"
        xmlns="http://www.w3.org/2000/svg"
>
  <sodipodi:namedview
     id="namedview1"
     pagecolor="#ffffff"
     bordercolor="#000000"
     borderopacity="0.25"
     inkscape:showpageshadow="2"
     inkscape:pageopacity="0.0"
     inkscape:pagecheckerboard="0"
     inkscape:deskcolor="#d1d1d1"
     inkscape:document-units="mm"
     inkscape:zoom="0.3710277"
     inkscape:cx="2065.8835"
     inkscape:cy="1207.457"
     inkscape:window-width="2560"
     inkscape:window-height="1378"
     inkscape:window-x="0"
     inkscape:window-y="25"
     inkscape:window-maximized="1"
     inkscape:current-layer="layer1" />
  <defs
     id="defs1" />
  <g
     inkscape:label="Layer 1"
     inkscape:groupmode="layer"
     id="layer1"
     transform="translate(340.51876,206.63959)">
    <path
       id="path3"
       d="m -275.5204,138.22185 c 0,0 10.01324,103.4556 85.10093,125.98398 0,0 -54.23041,-28.36686 -85.10093,-125.98398 z m 434.61197,-37.77546 c -3.39373,6.43115 -8.31498,11.35592 -10.86556,12.60475 -10.29759,-3.18204 -35.25309,-12.02267 -39.51817,-18.721915 -2.667,-4.198038 -2.78342,-10.706788 -0.28575,-16.206602 1.91206,-4.226269 5.04121,-6.970898 8.56898,-7.510648 1.20298,-0.179916 2.78342,-0.278685 4.56848,-0.278685 14.43919,0 37.2886,5.630333 40.23429,14.449768 1.38996,4.162796 0.4304,9.726084 -2.70227,15.663332 z m -42.4815,-32.307369 c -10.8444,1.665102 -15.85031,18.355018 -10.01183,27.534287 5.842,9.172232 41.7195,20.020152 41.7195,20.020152 5.83848,-1.66865 20.02366,-19.187587 15.85031,-31.700606 C 159.99467,71.47629 127.45799,66.470373 116.61007,68.139021 Z M -134.99598,188.72197 c -5.80247,-2.51177 -12.03817,-0.44095 -12.03817,-0.44095 0,0 5.50122,-0.5715 12.03817,0.44095 z m 9.65518,17.91407 c 1.6697,25.02958 -20.02367,31.70415 -20.02367,31.70415 0,0 33.37208,-6.67457 31.70381,-30.0355 -0.97404,-13.63488 -12.17401,-18.16807 -21.33532,-19.58272 4.59423,1.98967 8.91718,6.85448 9.65518,17.91407 z m 791.35638,-342.49077 c -52.56389,33.79258 -150.18101,10.01183 -160.19285,10.01183 -10.01183,0 -6.25475,-26.27841 -6.25475,-26.27841 -8.763,16.26658 -5.00591,28.78313 -5.00591,28.78313 -18.77484,20.02367 -107.62898,11.2642 -115.1396,7.50711 -7.50713,-3.75355 -6.25475,-40.04733 -6.25475,-40.04733 -7.51065,30.0355 -6.2583,43.80442 -6.2583,43.80442 -14.89779,2.97744 -77.83687,-11.37356 -103.19808,-17.43075 -12.51654,-5.25639 -26.06321,-11.09839 -40.72467,-17.6142 -52.56035,11.2642 -73.83637,21.27603 -152.678682,8.763 -21.05025,-3.3408 -100.121851,45.053254 -100.121851,45.053254 0,0 97.617146,-33.789054 101.370684,-35.041414 3.196167,-1.06539 67.052479,6.91444 112.250349,-0.69145 -6.16302,7.27075 -16.13958,22.58131 -13.79712,43.65978 0,0 10.07885,-29.26644 21.86517,-45.22964 4.87537,-1.09714 9.45091,-2.413 13.59252,-3.99697 31.97225,-12.22375 68.89043,22.17914 117.12223,38.452777 -1.85563,1.326444 -29.77798,21.579417 -19.08882,30.7975 24.19702,20.85622 60.90357,32.536698 80.92723,-6.674556 0,0 -40.8799,45.885792 -75.08875,3.337276 -2.50825,-3.118553 16.64052,-21.180776 20.86679,-25.103663 7.84225,2.257777 15.97025,3.979333 24.42281,4.893027 l -6.4911,1.85561 c 56.17633,2.76225 42.55204,29.241749 31.43602,43.038886 -6.54756,2.878667 -41.51135,17.892887 -76.48927,25.791573 -31.90171,7.203731 -73.92458,-10.964333 -87.86989,-17.656519 -5.9549,-13.479637 -10.99961,-33.654997 -10.99961,-33.654997 -3.33023,15.818556 -1.12537,29.38286 0.73025,36.717099 C 169.55142,-2.4871071 86.574571,-6.9497283 86.574571,-6.9497283 105.3494,6.8156428 130.37899,-0.69145943 130.37899,-0.69145943 122.86834,44.36179 60.296155,69.391373 60.296155,69.391373 27.755951,115.69346 -26.05678,119.45054 -26.05678,119.45054 c 45.05325,36.29377 95.112416,35.04142 95.112416,35.04142 -11.264186,25.02958 11.264185,47.55443 11.264185,47.55443 -24.027685,15.01775 -62.759166,16.4818 -96.544684,13.94531 -20.28825,-11.50056 -43.377564,-27.178 -46.125685,-40.22373 0,0 -16.270129,10.01184 -27.534314,1.24884 -11.262068,-8.75946 -95.111698,-121.394353 7.510647,-256.554099 0,0 -142.669685,135.159746 -3.753564,294.100239 0,0 1.329981,0.40924 3.658314,1.08657 0.0282,0.35629 0.05292,0.70908 0.08112,1.06537 l -64.645805,53.33294 c 0,0 -31.7038,-53.39996 -46.72154,-150.18102 -13.33641,-85.940187 44.37522,-175.820903 57.47172,-194.877959 l 53.909753,-4.52614 C -47.332798,-128.34409 126.6219,-202.18401 164.16805,-198.42692 c 37.54612,3.75355 215.25442,0 215.25442,0 15.01774,-3.75709 128.90497,8.75947 128.90497,8.75947 17.51896,-2.5012 113.88373,5.00591 132.65856,10.01183 18.77131,5.00592 43.8009,10.01183 25.02958,43.80089 z M 428.71963,8.7594571 c -1.07598,8.3819999 -3.48898,21.9709999 -8.41375,30.1766019 -39.21125,11.680481 -79.25858,21.692314 -97.61363,33.376314 0,0 14.18167,-27.534314 -1.67216,-47.55798 0,0 9.17929,33.372795 -9.17575,46.721897 -11.02077,8.015102 -53.11421,1.231185 -87.884,-6.25475 5.01298,-0.941917 14.74613,-4.0005 17.80116,-13.768917 4.16984,-13.349102 -13.3491,-42.5520636 -45.88933,-33.372768 -32.53668,9.17575 -15.85029,35.041416 -15.85029,35.041416 -0.83256,-4.173379 -7.50712,-25.862147 18.35502,-30.868064 25.86215,-5.009436 38.37869,12.513019 36.71007,27.530769 -1.18888,10.72798 -7.90575,14.206378 -11.64873,15.324666 -26.88167,-5.806704 -49.25836,-11.987371 -49.25836,-11.987371 0,0 119.30944,35.041416 134.32719,34.208852 14.24165,-0.790231 41.20443,-0.08819 51.07165,-2.8575 -1.69688,0.762 -2.68113,1.185333 -2.68113,1.185333 0,0 14.84489,-1.830916 4.54025,24.884934 -3.40077,6.96383 -8.96054,15.94908 -16.22071,19.33575 -12.51304,5.842 -113.46746,0 -115.97216,-2.50118 0,0 6.67453,-12.51302 2.5047,-33.372773 0,0 -5.00592,38.378683 -17.52245,37.546123 -12.51305,-0.83609 -78.42605,-14.18519 -100.9509,-25.0331 C 101.53234,100.86621 99.091135,84.409123 99.091135,84.409123 101.59232,48.115354 174.17988,53.121271 174.17988,53.121271 157.90976,30.592874 171.67867,14.32629 205.46774,3.0621049 c 33.78906,-11.2642119 80.09466,0 80.09466,0 0,0 17.10619,0.8325379 24.61332,8.3431851 0,0 -7.99042,-7.6023518 -15.748,-13.3138327 31.21728,-14.8307693 78.74,-13.8006663 78.74,-13.8006663 l -26.28197,-2.504731 c 9.65907,-2.173103 19.43807,-10.625667 25.97857,-17.370769 37.52498,5.263436 52.24639,25.096602 55.85531,44.3441661 z M 301.82547,158.78527 c 3.94403,0.10935 7.5071,0.1905 10.58333,0.23635 -4.58965,0.50094 -8.29733,0.14465 -10.58333,-0.23635 z m -15.20473,34.65687 c -20.27061,18.12221 -91.58111,6.51933 -91.58111,6.51933 11.68046,-13.34558 5.00592,-34.20533 5.00592,-34.20533 0,0 0.83254,27.5308 -14.18521,33.3728 -13.17271,5.12233 -42.38625,-17.99167 -49.36771,-23.75255 5.72204,-5.81025 12.23786,-17.07795 9.38036,-25.76335 -3.82765,-11.64167 -33.68675,-16.30185 -43.6386,-14.74965 -6.03605,0.94192 -10.078883,7.02382 -11.151319,13.56432 -2.786936,-5.334 -3.672417,-9.36977 -3.672417,-9.36977 0,0 -0.09173,0.0917 -0.243416,0.29985 1.513416,-3.10798 3.164416,-4.8895 3.164416,-4.8895 5.376334,-15.06008 66.181106,-1.46757 83.177936,2.6529 15.84679,6.27591 28.90663,11.63812 31.54188,13.6172 5.36927,4.02521 60.93528,6.97442 94.20928,7.9728 -0.45153,2.87866 -3.2667,18.84185 -12.64001,34.73095 z M 93.079802,151.89197 c -0.0071,-2.5682 0.525621,-5.26343 1.636871,-7.74345 1.756834,-3.92996 4.624917,-6.48055 7.866967,-6.98148 1.10418,-0.16933 2.55058,-0.26107 4.191,-0.26107 13.24678,0 34.21943,5.23524 36.9217,13.44084 1.27354,3.8735 0.39158,9.04875 -2.48002,14.56973 -1.97556,3.79235 -4.50498,7.00968 -6.69573,9.16165 -23.1422,-0.63148 -35.316583,-12.446 -41.440788,-22.18622 z m -358.586962,89.78548 c 19.09622,38.19171 48.08538,53.14596 77.1839,56.05637 -44.44471,9.34509 -103.04957,33.21757 -103.04957,33.21757 -30.03585,-32.54023 -27.53289,-117.64079 -27.53289,-117.64079 -12.2301,-45.42366 -15.64463,-84.74429 -13.69554,-118.353413 -0.0293,4.875371 0.0441,9.817783 0.34714,14.897783 0,0 15.0181,-93.443763 63.40898,-131.822448 0,0 -33.37313,68.414185 -10.01148,150.177498 0,0 8.34354,-135.1597483 55.06508,-158.52071 0,0 -50.06058,50.055647 -13.34946,151.84615 0,0 10.45668,-161.085389 89.17092,-195.569416 l 9.65237,-0.80786 c -68.69607,58.296523 -67.71817,142.077708 -68.7878,188.034086 -1.66793,71.75145 51.72887,165.19522 51.72887,165.19522 -66.7452,28.36688 -110.13052,-36.71004 -110.13052,-36.71004 z m 4.16983,-306.196989 c 0,0 -14.5863,11.77925 -30.5636,34.215913 16.00411,-23.28333 30.5636,-34.215913 30.5636,-34.215913 z M 678.23581,-166.10895 c -5.53156,-12.96459 -20.82096,-16.98625 -33.11173,-20.2177 l -2.20485,-0.58208 c -17.42017,-4.64608 -92.59006,-10.76325 -123.39815,-10.76325 -4.9036,0 -8.59718,0.14111 -11.2536,0.44097 -9.67316,-1.05127 -87.39716,-9.40858 -118.39575,-9.40858 -6.38881,0 -9.5391,0.36336 -11.33826,0.71967 -8.12097,0.16227 -82.14432,1.64747 -141.87313,1.64747 -36.78412,0 -60.92119,-0.54328 -71.74794,-1.62631 -1.16064,-0.11641 -2.4271,-0.17639 -3.7606,-0.17639 -46.04808,0 -208.350561,70.79192 -247.477143,119.334141 l -179.515547,16.217193 c -1.18427,0.889 -29.28655,22.313193 -50.79506,68.537671 -19.58516,42.100499 -37.14397,113.717915 -9.80299,216.185745 -0.20637,10.73502 -6.3821,91.55639 23.80263,124.25889 0,0 132.33751,-36.29377 136.05861,-36.86527 29.02762,-4.44148 61.93049,-9.47915 79.807857,-33.90193 9.394481,-12.83055 13.338545,-29.25234 12.012083,-49.86515 7.126128,1.9544 17.032128,4.52263 28.066999,6.96031 12.650629,4.42032 25.340046,6.99559 37.6061288,8.25149 8.75241652,1.44991 17.3637043,2.48353 25.2800372,2.794 4.176898,0.16578 8.131546,0.25045 11.765148,0.25045 26.363083,0 37.285083,-4.34975 51.117499,-9.86012 13.433769,-5.35517 30.098998,-11.99092 69.214998,-17.72005 10.14587,3.81 57.88025,21.00088 92.5477,21.00088 13.38792,0 23.31863,-2.49063 30.36713,-7.61648 22.32729,-16.23835 31.04092,-42.39331 34.09596,-55.17798 0.8255,0.0459 1.70391,0.0741 2.62466,0.0741 12.41073,0 35.7999,-4.87891 53.10013,-37.5567 10.43517,-19.71675 13.74069,-33.136416 10.22702,-41.850045 17.51542,-8.300852 49.12783,-24.705019 58.28948,-38.957249 7.96922,-12.393084 11.28887,-35.186038 2.21544,-54.7581664 -5.67267,-12.2484356 -18.10102,-27.2944166 -45.27902,-34.2476556 6.62516,-8.597194 13.4761,-21.149027 9.2992,-32.84361 -2.32479,-6.50875 -11.82862,-16.033747 -11.82862,-16.033747 0.71612,0.05292 19.57562,1.100667 33.25987,1.100667 25.4776,0 61.3269,-1.957917 88.51548,-11.16189 2.70579,0.08114 9.12635,0.229306 18.02694,0.229306 59.55241,0 133.71335,-5.71147 148.82989,-32.91064 7.65527,-13.78303 9.50736,-24.87436 5.6515,-33.90194"
       style="fill:#100f0d;fill-opacity:1;fill-rule:nonzero;stroke:none;stroke-width:0.0352777" />
  </g>
</svg>
